<?xml version="1.0" standalone="no"?>
<!DOCTYPE svg PUBLIC "-//W3C//DTD SVG 1.1//EN" "http://www.w3.org/Graphics/SVG/1.1/DTD/svg11.dtd" >
<svg xmlns="http://www.w3.org/2000/svg">
<metadata>Generated by IcoMoon</metadata>
<defs>
<font id="dublindongxi" horiz-adv-x="1024">
<font-face units-per-em="1024" ascent="960" descent="-64" />
<missing-glyph horiz-adv-x="1024" />
<glyph unicode="&#x20;" d="" horiz-adv-x="512" />
<glyph unicode="&#xe001;" d="M465.766 587.008c-12.339 43.52-32.307 56.371-63.386 56.371-3.328 0-6.707-0.461-9.933-1.331-13.517-3.84-24.166-15.104-30.106-31.744-6.093-16.896-6.502-34.56-1.178-54.63 9.421-35.84 34.918-61.901 60.672-61.901 3.328 0 6.707 0.461 9.933 1.331 28.006 7.936 45.619 50.842 33.997 91.904zM512 939.52c-271.462 0-491.52-220.058-491.52-491.52s220.058-491.52 491.52-491.52c271.514 0 491.52 220.058 491.52 491.52s-220.006 491.52-491.52 491.52zM483.686 236.954c-30.925-15.002-64.154-16.589-77.005-16.589-2.458 0-3.84 0.051-4.045 0.051 0 0-0.973 0-2.509 0-20.070 0-119.962 4.608-119.962 95.59 0 89.395 108.749 96.358 142.080 96.358h0.922c-19.2 25.702-15.206 51.61-15.206 51.61-1.69-0.102-4.198-0.205-7.219-0.205-12.595 0-36.813 1.997-57.6 15.462-25.446 16.333-38.349 44.237-38.349 82.893 0 109.107 119.091 113.51 120.32 113.562h118.938v-2.611c0-13.312-23.859-15.872-40.192-18.125-5.53-0.768-16.589-1.894-19.763-3.482 30.157-16.077 35.021-41.421 35.021-79.104 0-42.854-16.794-65.536-34.611-81.51-11.008-9.83-19.712-17.664-19.712-28.006 0-10.138 11.878-20.582 25.702-32.717 22.579-19.866 53.555-47.053 53.555-92.723 0-47.206-20.326-80.998-60.365-100.454zM743.782 448.461h-77.619v-77.619h-49.152v77.619h-77.619v49.152h77.619v77.568h49.152v-77.619h77.619v-49.101zM421.018 389.069c-2.662 0-5.325-0.102-7.987-0.307-22.733-1.638-43.725-10.189-58.931-24.013-15.053-13.619-22.682-30.771-21.606-48.179 2.253-36.352 41.37-57.702 88.781-54.272 46.746 3.379 77.875 30.259 75.571 66.662-2.202 34.253-31.949 60.109-75.827 60.109z" />
<glyph unicode="&#xe002;" d="M512 939.52c-271.462 0-491.52-220.058-491.52-491.52s220.058-491.52 491.52-491.52 491.52 220.058 491.52 491.52-220.058 491.52-491.52 491.52zM628.378 599.859h-73.882c-8.704 0-18.432-11.52-18.432-26.829v-53.35h92.365v-76.083h-92.365v-228.403h-87.245v228.403h-79.053v76.032h79.053v44.749c0 64.205 44.544 116.378 105.677 116.378h73.882v-80.896z" />
<glyph unicode="&#xe003;" d="M512 939.52c-271.462 0-491.52-220.058-491.52-491.52s220.058-491.52 491.52-491.52 491.52 220.058 491.52 491.52-220.058 491.52-491.52 491.52zM711.885 536.832c0.205-4.147 0.307-8.346 0.307-12.544 0-127.898-97.382-275.405-275.456-275.405-54.63 0-105.574 15.974-148.378 43.52 7.578-0.922 15.309-1.331 23.091-1.331 45.363 0 87.091 15.462 120.269 41.472-42.342 0.768-78.131 28.774-90.47 67.174 5.888-1.126 11.981-1.741 18.176-1.741 8.858 0 17.408 1.178 25.498 3.379-44.237 8.909-77.67 48.026-77.67 94.925 0 0.41 0 0.819 0.051 1.178 13.056-7.219 28.006-11.571 43.827-12.083-25.907 17.357-43.008 46.95-43.008 80.589 0 17.766 4.762 34.406 13.107 48.691 47.718-58.624 119.091-97.178 199.526-101.171-1.638 7.066-2.509 14.438-2.509 22.067 0 53.453 43.366 96.819 96.819 96.819 27.853 0 52.992-11.725 70.656-30.566 22.067 4.301 42.803 12.339 61.491 23.45-7.27-22.579-22.579-41.574-42.598-53.555 19.61 2.355 38.246 7.526 55.603 15.258-12.954-19.405-29.44-36.454-48.333-50.125z" />
<glyph unicode="&#xe004;" d="M512 939.52c-271.462 0-491.52-220.058-491.52-491.52s220.058-491.52 491.52-491.52 491.52 220.058 491.52 491.52-220.058 491.52-491.52 491.52zM545.587 331.469c-31.488 2.458-44.698 18.074-69.376 33.075-13.619-71.27-30.157-139.571-79.36-175.206-15.155 107.674 22.323 188.518 39.68 274.33-29.645 49.869 3.584 150.323 66.099 125.594 76.954-30.464-66.662-185.549 29.747-204.954 100.659-20.224 141.722 174.643 79.309 237.978-90.163 91.494-262.451 2.099-241.254-128.922 5.171-32.051 38.195-41.728 13.21-85.965-57.702 12.8-74.957 58.317-72.704 118.989 3.584 99.379 89.242 168.909 175.155 178.586 108.698 12.134 210.688-39.885 224.819-142.131 15.821-115.456-49.101-240.384-165.325-231.373z" />
<glyph unicode="&#xe600;" d="M1024 857.061c0 56.846-46.060 102.939-102.939 102.939h-818.121c-56.873 0-102.939-46.094-102.939-102.939v-818.121c0-56.812 46.066-102.939 102.939-102.939h818.121c56.88 0 102.939 46.128 102.939 102.939v818.121zM252.587 173.998v602.44l592.002-331.626-592.002-270.814z" />
<glyph unicode="&#xe601;" d="M8.147 660.454l2.161-720.371-8.153-0.024-2.161 720.371 8.153 0.024zM6.231-55.847h759.188v-8.153h-759.188v8.153zM4.076 664.521h761.346v-8.153h-761.346v8.153zM761.346 660.444h8.153v-720.368h-8.153v720.368zM233.706 861.553l2.161-720.371-8.153-0.024-2.161 720.371 8.153 0.024zM231.788 145.251h759.188v-8.153h-759.188v8.153zM229.633 865.619h761.346v-8.153h-761.346v8.153zM986.903 861.543h8.153v-720.368h-8.153v720.368zM226.926 864.574l5.425-6.086-225.582-201.075-5.425 6.086 225.582 201.075zM988.262 864.554l5.425-6.086-225.582-201.075-5.425 6.086 225.582 201.075zM988.297 144.239l5.425-6.082-225.522-201.135-5.425 6.082 225.522 201.135zM229.090 144.216l5.425-6.082-225.522-201.135-5.425 6.082 225.522 201.135zM226.923 497.958l5.425-6.082-225.522-201.135-5.425 6.082 225.522 201.135zM988.29 497.98l5.425-6.082-225.522-201.135-5.425 6.082 225.522 201.135zM4.076 297.883h761.349v-8.153h-761.349v8.153zM229.633 498.981h761.349v-8.153h-761.349v8.153zM114.933 762.918h8.153v-366.638h-8.153v366.638zM770.681 866.487l5.425-6.086-112.791-100.537-5.425 6.086 112.791 100.537zM119.010 766.994h541.613v-8.153h-541.613v8.153zM119.039 400.357l759.191-1.898-0.020-8.153-759.191 1.898 0.020 8.153zM656.546 762.918h8.153v-368.56h-8.153v368.56zM881.678 396.468l61.926-100.552-6.942-4.275-61.926 100.552 6.942 4.275zM664.098 396.47l61.926-100.552-6.942-4.275-61.926 100.552 6.942 4.275zM722.545 297.883h217.575v-8.153h-217.575v8.153zM988.119 346.982l5.733-5.797-50.845-50.287-5.733 5.797 50.845 50.287zM770.539 346.982l5.733-5.797-50.845-50.287-5.733 5.797 50.845 50.287zM773.401 348.157h217.575v-8.153h-217.575v8.153zM570.411 144.073l5.733-5.797-50.845-50.287-5.733 5.797 50.845 50.287zM719.622 296.605l5.828-5.701-149.294-152.625-5.828 5.701 149.294 152.625zM121.649 959.022l110.616-94.388-5.292-6.202-110.616 94.388 5.292 6.202zM115.227 957.396l7.597-2.956-114.961-295.455-7.597 2.956 114.961 295.455zM119.010 960h749.938v-8.153h-749.938v8.153zM865.131 957.305l7.697-2.696-103.508-295.496-7.697 2.696 103.508 295.496zM871.426 959.141l122.027-94.382-4.988-6.449-122.027 94.382 4.988 6.449z" horiz-adv-x="995" />
<glyph unicode="&#xe602;" d="M402.746 813.254l-320-320c-24.994-24.992-24.994-65.516 0-90.508l320-320c24.994-24.992 65.516-24.992 90.51 0 24.996 24.992 24.996 65.516 0 90.508l-210.748 210.746h613.492c35.346 0 64 28.652 64 64 0 35.346-28.654 64-64 64h-613.492l210.746 210.746c12.496 12.496 18.746 28.876 18.746 45.254s-6.248 32.758-18.744 45.254c-24.996 24.994-65.516 24.994-90.51 0z" />
<glyph unicode="&#xe603;" d="M692.801 612.462l7.798-0.437-37.616-670.648-7.798 0.437 37.616 670.648zM716.288 612.528l35.199-670.793-7.8-0.409-35.199 670.793 7.8 0.409zM659.131-54.593h88.468v-7.813h-88.468v7.813zM685.175-28.549h88.468v-7.813h-88.468v7.813zM692.65 612.291l7.809-0.137-11.347-644.589-7.809 0.137 11.347 644.589zM716.291 612.656l61.27-644.76-7.778-0.739-61.27 644.76 7.778 0.739zM682.414-29.654l5.525-5.525-26.043-26.043-5.525 5.525 26.043 26.043zM770.882-29.714l5.525-5.525-26.043-26.043-5.525 5.525 26.043 26.043zM590.886 616.677h227.372v-7.813h-227.372v7.813zM586.98 933.146h7.813v-320.379h-7.813v320.379zM814.351 933.146h7.813v-320.379h-7.813v320.379zM590.886 934.449h46.688v-7.813h-46.688v7.813zM678.544 934.449h46.686v-7.813h-46.686v7.813zM771.145 934.449h46.686v-7.813h-46.686v7.813zM631.064 930.542h7.813v-266.096h-7.813v266.096zM769.843 930.542h7.813v-266.096h-7.813v266.096zM718.719 933.146h7.813v-266.096h-7.813v266.096zM676.604 930.542h7.813v-266.096h-7.813v266.096zM634.97 670.957h45.543v-7.813h-45.543v7.813zM724.829 670.957h45.535v-7.813h-45.535v7.813zM605.033 957.685h7.813v-320.381h-7.813v320.381zM832.399 957.685h7.813v-320.381h-7.813v320.381zM608.94 958.987h46.686v-7.813h-46.686v7.813zM696.6 958.987h46.681v-7.813h-46.681v7.813zM789.19 958.987h46.688v-7.813h-46.688v7.813zM649.117 955.080h7.813v-266.098h-7.813v266.098zM787.888 955.080h7.813v-266.098h-7.813v266.098zM736.772 957.685h7.813v-266.098h-7.813v266.098zM694.657 955.080h7.813v-266.098h-7.813v266.098zM653.024 695.493h45.537v-7.813h-45.537v7.813zM742.882 695.493h45.545v-7.813h-45.545v7.813zM605.85 959.971l6.293-4.632-18.060-24.537-6.293 4.632 18.060 24.537zM649.931 957.365l6.293-4.632-18.057-24.533-6.293 4.632 18.057 24.533zM695.449 957.386l6.293-4.632-18.059-24.535-6.293 4.632 18.059 24.535zM737.557 960.024l6.296-4.632-18.057-24.544-6.296 4.632 18.057 24.544zM785.871 957.112l6.607-4.161-15.451-24.535-6.607 4.161 15.451 24.535zM832.866 957.55l6.089-4.891-17.618-21.934-6.089 4.891 17.618 21.934zM833.19 639.596l6.293-4.632-18.059-24.535-6.293 4.632 18.059 24.535zM787.589 693.436l6.872-3.718-14.686-27.141-6.872 3.718 14.686 27.141zM739.715 693.893l6.291-4.629-18.052-24.531-6.291 4.629 18.052 24.531zM695.446 693.885l6.293-4.632-18.062-24.539-6.293 4.632 18.062 24.539zM649.935 693.872l6.296-4.632-18.053-24.538-6.296 4.632 18.053 24.538zM605.825 639.604l6.293-4.632-18.063-24.541-6.293 4.632 18.063 24.541zM608.94 641.213h227.366v-7.813h-227.366v7.813zM278.917 604.666c-64.838 0-117.59 73.612-117.59 164.096s52.751 164.096 117.59 164.096 117.59-73.612 117.59-164.096-52.749-164.096-117.59-164.096zM278.917 925.044c-60.531 0-109.777-70.107-109.777-156.283s49.246-156.283 109.777-156.283c60.531 0 109.777 70.107 109.777 156.283s-49.246 156.283-109.777 156.283zM275.589 610.862l7.801-0.438-37.616-670.648-7.801 0.438 37.616 670.648zM299.088 610.929l35.199-670.79-7.802-0.409-35.199 670.79 7.802 0.409zM241.914-56.187h88.47v-7.813h-88.47v7.813zM267.958-30.143h88.468v-7.813h-88.468v7.813zM275.447 610.705l7.812-0.138-11.347-644.589-7.812 0.138 11.347 644.589zM299.066 611.063l61.27-644.765-7.778-0.739-61.27 644.765 7.778 0.739zM265.156-31.225l5.523-5.526-26.049-26.034-5.523 5.526 26.049 26.034zM353.621-31.289l5.523-5.526-26.049-26.034-5.523 5.526 26.049 26.034zM304.38 631.808c-64.838 0-117.587 73.615-117.587 164.096 0 90.483 52.749 164.098 117.587 164.098s117.59-73.615 117.59-164.098c0-90.481-52.751-164.096-117.59-164.096zM304.38 952.187c-60.531 0-109.774-70.107-109.774-156.285 0-86.176 49.246-156.283 109.774-156.283 60.531 0 109.777 70.107 109.777 156.283s-49.246 156.285-109.777 156.285z" horiz-adv-x="1037" />
<glyph unicode="&#xe604;" d="M0 413.428h9.454v-472.704h-9.454v472.704zM4.727 418.155h545.031v-9.454h-545.031v9.454zM545.031 413.428h9.454v-472.704h-9.454v472.704zM4.727-54.549h545.031v-9.454h-545.031v9.454zM87.756 521.917h9.454v-472.704h-9.454v472.704zM92.483 526.644h545.028v-9.454h-545.028v9.454zM632.787 521.917h9.454v-472.704h-9.454v472.704zM92.483 53.94h545.028v-9.454h-545.028v9.454zM88.826 524.865l7.349-5.949-87.802-108.469-7.349 5.949 87.802 108.469zM88.785 52.204l7.351-5.946-87.756-108.492-7.351 5.946 87.756 108.492zM633.891 524.878l7.348-5.949-87.788-108.438-7.348 5.949 87.788 108.438zM633.823 52.184l7.349-5.949-87.8-108.466-7.349 5.949 87.8 108.466zM691.254 412.294h9.454v-472.704h-9.454v472.704zM695.981 417.021h545.022v-9.454h-545.022v9.454zM1236.279 412.294h9.454v-472.704h-9.454v472.704zM695.981-55.684h545.022v-9.454h-545.022v9.454zM778.997 520.779h9.454v-472.701h-9.454v472.701zM783.725 525.506h545.028v-9.454h-545.028v9.454zM1324.032 520.779h9.454v-472.701h-9.454v472.701zM783.725 52.805h545.028v-9.454h-545.028v9.454zM780.095 523.707l7.349-5.949-87.804-108.471-7.349 5.949 87.804 108.471zM780.017 51.045l7.352-5.949-87.768-108.475-7.352 5.949 87.768 108.475zM1325.152 523.672l7.349-5.949-87.802-108.469-7.349 5.949 87.802 108.469zM1324.931 51.113l7.352-5.943-87.714-108.52-7.352 5.943 87.714 108.52zM293.546 446.098c-129.981 0-235.728 105.747-235.728 235.728s105.747 235.725 235.728 235.725c129.981 0 235.728-105.747 235.728-235.728s-105.747-235.725-235.728-235.725zM293.546 908.097c-124.769 0-226.274-101.505-226.274-226.274s101.505-226.274 226.274-226.274 226.274 101.505 226.274 226.274-101.505 226.274-226.274 226.274zM360.818 476.042c-129.981 0-235.728 105.747-235.728 235.728s105.747 235.728 235.728 235.728c129.981 0 235.728-105.747 235.728-235.728s-105.747-235.728-235.728-235.728zM360.818 938.044c-124.769 0-226.274-101.505-226.274-226.274s101.505-226.274 226.274-226.274 226.274 101.505 226.274 226.274-101.505 226.274-226.274 226.274zM994.242 431.123c-129.981 0-235.728 105.747-235.728 235.728s105.747 235.728 235.728 235.728 235.728-105.747 235.728-235.728c0-129.981-105.747-235.728-235.728-235.728zM994.242 893.125c-124.769 0-226.274-101.505-226.274-226.274s101.505-226.274 226.274-226.274 226.274 101.505 226.274 226.274-101.505 226.274-226.274 226.274zM1061.514 461.070c-129.981 0-235.731 105.747-235.731 235.728s105.75 235.728 235.731 235.728 235.728-105.747 235.728-235.728-105.747-235.728-235.728-235.728zM1061.514 923.069c-124.769 0-226.277-101.505-226.277-226.274s101.508-226.274 226.277-226.274 226.274 101.505 226.274 226.274-101.505 226.274-226.274 226.274z" horiz-adv-x="1333" />
<glyph unicode="&#xe605;" d="M341.313 447.986c0-13.414-1.734-26.358-4.71-38.892l246.224-164.161c28.167 20.316 62.539 32.379 99.86 32.379 94.133 0 170.605-76.472 170.605-170.708 0-94.263-76.472-170.605-170.605-170.605-94.324 0-170.742 76.349-170.742 170.605 0 13.449 1.741 26.467 4.615 38.892l-246.197 164.229c-28.003-20.337-62.471-32.413-99.724-32.413-94.167 0-170.639 76.438-170.639 170.673 0 94.167 76.472 170.639 170.639 170.639 37.253 0 71.728-12.070 99.724-32.386l246.19 164.195c-2.874 12.5-4.615 25.45-4.615 38.892 0.007 94.269 76.425 170.673 170.749 170.673 94.133 0 170.605-76.404 170.605-170.673 0-94.235-76.472-170.701-170.605-170.701-37.321 0-71.694 12.097-99.86 32.447l-246.224-164.263c2.976-12.465 4.71-25.382 4.71-38.823z" horiz-adv-x="853" />
<glyph unicode="&#xe606;" d="M0 695.311h11.965v-753.328h-11.965v753.328zM5.982-52.035h1316.742v-11.965h-1316.742v11.965zM5.982 701.293h1316.742v-11.965h-1316.742v11.965zM1316.738 695.311h11.965v-753.328h-11.965v753.328zM190.289 863.067h11.965v-753.324h-11.965v753.324zM196.272 115.725h1316.742v-11.965h-1316.742v11.965zM196.272 869.049h1316.742v-11.965h-1316.742v11.965zM1507.032 863.067h11.965v-753.324h-11.965v753.324zM192.325 867.538l7.91-8.973-190.333-167.778-7.91 8.973 190.333 167.778zM192.268 114.29l7.913-8.973-190.249-167.775-7.913 8.973 190.249 167.775zM1508.953 867.572l7.913-8.973-190.249-167.775-7.913 8.973 190.249 167.775zM1509.056 114.111l7.91-8.973-190.3-167.749-7.91 8.973 190.3 167.749zM1041.014 631.655h205.74v-11.965h-205.74v11.965zM1240.771 625.673h11.965v-123.443h-11.965v123.443zM1041.014 508.212h205.74v-11.965h-205.74v11.965zM1035.031 625.673h11.965v-123.443h-11.965v123.443zM256.055 736.94h165.758v-11.965h-165.758v11.965zM371.878 827.535l7.29-9.487-119.479-91.813-7.29 9.487 119.479 91.813zM537.615 827.537l7.29-9.487-119.479-91.813-7.29 9.487 119.479 91.813zM375.534 828.76h165.766v-11.965h-165.766v11.965zM535.317 954.014h11.965v-131.232h-11.965v131.232zM371.884 958.764l7.289-9.488-119.497-91.801-7.289 9.488 119.497 91.801zM537.653 958.775l7.29-9.487-119.479-91.813-7.29 9.487 119.479 91.813zM375.534 960h165.766v-11.965h-165.766v11.965zM256.047 868.172h165.766v-11.965h-165.766v11.965zM250.065 862.189h11.965v-131.232h-11.965v131.232zM415.834 862.189h11.965v-131.232h-11.965v131.232zM369.551 954.018h11.965v-131.24h-11.965v131.24zM528.537-11.97c-151.636 0-274.999 123.371-274.999 274.999 0 151.636 123.363 274.999 274.999 274.999s274.999-123.363 274.999-274.999c0-151.628-123.367-274.999-274.999-274.999zM528.537 526.063c-145.039 0-263.034-117.995-263.034-263.034 0-145.035 117.995-263.034 263.034-263.034 145.035 0 263.034 117.999 263.034 263.034 0 145.039-117.999 263.034-263.034 263.034zM612.289 35.889c-151.636 0-274.999 123.371-274.999 274.999 0 151.636 123.363 274.999 274.999 274.999s275.003-123.363 275.003-274.999c0-151.628-123.371-274.999-275.003-274.999zM612.289 573.922c-145.039 0-263.034-117.995-263.034-263.034 0-145.035 117.995-263.034 263.034-263.034 145.035 0 263.038 117.999 263.038 263.034 0 145.039-118.003 263.034-263.038 263.034z" horiz-adv-x="1519" />
<glyph unicode="&#xe607;" d="M323.098 478.784l-292.322 481.216-30.761-30.777 292.322-481.216-292.338-481.231 30.761-30.777 292.338 481.216 15.742 30.792z" horiz-adv-x="339" />
<glyph unicode="&#xe608;" d="M15.742 417.216l292.322-481.216 30.761 30.777-292.322 481.231 292.338 481.216-30.761 30.777-292.338-481.216-15.742-30.777z" horiz-adv-x="339" />
<glyph unicode="&#xe609;" d="M761.924 376.347c58.184 115.412 58.184 250.074-1.099 365.261-69.455 134.697-206.807 218.392-358.789 218.392-63.433 0-126.935-15.469-183.76-44.633-197.359-101.683-275.292-345.033-173.67-542.515 69.263-134.697 206.807-218.392 358.789-218.392 63.502 0 126.935 15.469 183.637 44.592 39.417 20.33 74.697 46.606 105.376 78.582l508.375-341.634 67.318 100.325-506.177 340.023zM531.879 306.442c-40.257-20.644-83.695-31.136-128.614-31.136-106.544 0-202.602 58.511-251.337 152.856-34.372 66.867-40.653 143.148-17.674 214.999 23.177 71.817 72.431 130.328 139.36 164.768 40.264 20.678 83.627 31.198 128.614 31.198 106.346 0 202.602-58.511 251.208-152.822 71.202-138.301 16.514-308.668-121.556-379.863z" horiz-adv-x="1268" />
<glyph unicode="&#xe60a;" d="M86.508 85.204v715.639h178.913c99.601 0 184.47-34.748 254.607-104.202 70.124-69.468 105.185-153.696 105.185-252.641 0-98.959-35.062-183.487-105.185-253.624-70.137-70.137-155.006-105.172-254.607-105.172h-178.913zM139.592 138.274h125.829c84.541 0 156.631 29.819 216.269 89.457 59.624 59.624 89.457 131.727 89.457 216.269 0 84.541-29.833 156.303-89.457 215.286-59.638 58.982-131.727 88.474-216.269 88.474h-125.829v-609.485zM797.232 336.848v463.995h53.084v-462.015c0-57.030 20.303-107.165 60.948-150.419 40.632-43.254 93.703-64.881 159.252-64.881 56.361 0 106.168 20.466 149.422 61.44 43.254 40.946 64.881 93.88 64.881 158.761v457.114h53.084v-457.114c0-80.609-27.034-146.323-81.101-197.1-54.067-50.804-116.163-76.186-186.286-76.186-80.609 0-146.309 26.856-197.1 80.609-50.804 53.74-76.186 115.671-76.186 185.795zM1573.833 85.204v715.639h178.913c55.692 0 100.598-18.186 134.676-54.559 34.065-36.372 51.118-77.824 51.118-124.355 0-44.578-11.796-79.626-35.389-105.185-5.898-5.898-16.070-13.107-30.474-21.627-14.418-8.533-25.231-13.435-32.44-14.746 24.235-2.621 53.576-21.299 87.982-56.033 34.406-34.748 51.61-78.985 51.61-132.724 0-61.604-20.152-111.411-60.457-149.408-40.305-38.025-86.685-57.016-139.1-57.016h-206.438zM1626.918 490.202h152.371c29.491 5.243 54.559 19.661 75.203 43.254s30.966 52.743 30.966 87.491c0 33.423-12.288 62.915-36.864 88.474-24.576 25.559-56.525 38.339-95.846 38.339h-125.829v-257.556zM1626.918 138.274h152.371c38.666 0 72.895 14.077 102.728 42.271 29.819 28.167 44.728 64.881 44.728 110.087 0 37.356-12.452 71.12-37.356 101.253-24.917 30.147-57.358 45.22-97.321 45.22h-165.151v-298.831zM2191.169 85.204v715.639h53.084v-662.569h377.487v-53.084h-430.572zM2774.098 85.204v715.639h53.098v-715.653h-53.098zM3063.098 85.204v739.232l518.062-617.349v593.756h53.084v-739.246l-518.048 617.349v-593.743h-53.098zM4080.203 810.168c0 16.794 8.397 24.631 25.204 23.525l92.406-6.717c11.756-0.573 24.358-2.253 37.806-5.038 12.875-9.53 10.076-19.319-8.397-29.396-15.674-2.253-20.999-20.166-15.961-53.767 0-14.008 6.717-20.999 20.166-20.999h132.724c13.435 0 27.43 8.397 41.998 25.204l28.563 35.28c14.554 17.913 29.942 19.879 46.203 5.885l57.126-47.882c14.554-12.329 18.76-21.845 12.602-28.563-7.277-8.397-19.319-12.602-36.127-12.602h-282.242c-13.995 0-20.999-6.717-20.999-20.166v-33.601c0-14.008 6.717-20.999 20.166-20.999h72.24c13.435-5.038 31.362 4.478 53.767 28.563 16.234 13.995 33.041 15.674 50.394 5.038l67.202-43.677c14.554-13.435 21.845-21.845 21.845-25.204-2.813-3.359-8.397-7.564-16.794-12.602-8.957-4.492-13.435-13.435-13.435-26.883v-183.965c0-16.794-8.397-26.597-25.204-29.396-29.123-3.359-58.259-7.564-87.354-12.602-19.046-2.813-28.563 1.406-28.563 12.602 0 13.435-6.717 20.166-20.166 20.166h-65.522c-13.995 0-12.889-5.885 3.359-17.64 67.202-48.169 163.799-80.637 289.806-97.444 18.487-2.813 27.716-6.444 27.716-10.923 0-7.277-7.564-17.64-22.678-31.075-22.405-26.883-37.806-60.757-46.203-101.635-3.919-17.913-15.961-22.692-36.127-14.295-50.394 21.859-95.218 47.896-134.403 78.138-44.81 41.998-75.899 80.637-93.239 115.917-11.209 23.525-16.794 26.037-16.794 7.564v-201.619c0-16.794-8.397-26.583-25.204-29.382-25.204-2.239-50.394-5.338-75.599-9.257-20.166-2.212-30.242 5.038-30.242 21.845v125.174c0 13.435-8.397 14.554-25.204 3.359-75.599-50.954-162.42-89.593-260.396-115.917-19.62-5.598-31.375-5.038-35.28 1.679-3.919 6.158 3.072 13.735 20.999 22.678 106.96 50.968 190.682 128.519 251.167 232.68 8.397 13.435 5.885 20.166-7.564 20.166h-40.318c-13.995 0-20.999-5.338-20.999-15.961 0-11.209-8.397-18.2-25.204-20.999l-83.995-12.602c-16.794-2.253-25.204 5.038-25.204 21.845v312.47c0 16.794 8.397 22.951 25.204 18.487l92.406-30.242c9.516-3.359 20.999-5.038 34.434-5.038h78.957c13.981 0 20.999 6.717 20.999 20.166v33.587c0 13.995-6.717 20.999-20.166 20.999h-262.922c-16.794 0-26.597 3.072-29.396 9.243-4.492 8.957 0.847 13.435 15.961 13.435h275.524c13.981 0 20.999 6.717 20.999 20.166v72.226zM4080.203 575.809c0 13.995-6.717 20.999-20.166 20.999h-76.445c-13.995 0-20.999-6.717-20.999-20.166v-56.279c0-14.008 6.717-20.999 20.166-20.999h76.445c13.981 0 20.999 6.717 20.999 20.166v56.279zM4080.203 454.854c0 14.554-6.444 21.845-19.319 21.845h-77.278c-13.995 0-20.999-6.717-20.999-20.166v-60.484c0-13.995 6.717-20.999 20.166-20.999h76.445c13.981 0 20.999 6.717 20.999 20.166v59.638zM4325.485 575.809c0 13.995-6.717 20.999-20.166 20.999h-73.086c-13.995 0-20.999-6.717-20.999-20.166v-56.279c0-14.008 6.717-20.999 20.166-20.999h73.086c13.981 0 20.999 6.717 20.999 20.166v56.279zM4325.485 454.854c0 14.554-6.444 21.845-19.319 21.845h-73.919c-13.995 0-20.999-6.717-20.999-20.166v-60.484c0-13.995 6.717-20.999 20.166-20.999h73.086c13.981 0 20.999 6.717 20.999 20.166v59.638zM5306.6 811.848c15.114 17.913 30.515 20.439 46.203 7.564l40.318-32.754c19.033-16.247 25.75-28.563 20.166-36.96-4.492-7.851-14.841-11.756-31.075-11.756h-197.4c-13.995 0-20.999-6.717-20.999-20.166v-116.763c0-14.008 5.584-20.999 16.794-20.999 13.981-6.171 31.621 7.837 52.92 41.998 15.114 16.234 31.075 19.319 47.882 9.243l73.086-45.356c25.204-9.53 30.515-22.678 15.961-39.485-13.995-14.008-20.999-26.883-20.999-38.639v-428.414c0-16.794-8.397-26.324-25.204-28.563l-94.085-10.909c-16.794-1.679-25.204 5.871-25.204 22.665v26.897c0 14.008-6.717 20.999-20.166 20.999h-358.687c-13.995 0-20.999-6.717-20.999-20.166v-17.654c0-16.794-8.397-26.583-25.204-29.382l-85.675-10.076c-17.927-2.799-26.883 4.192-26.883 20.985v563.664c0 16.794 8.397 21.845 25.204 15.114l92.406-40.318c18.487-10.65 31.362-14.841 38.639-12.602 7.837 0 11.756 6.717 11.756 20.166v116.763c0 13.995-6.717 20.999-20.166 20.999h-165.478c-16.794 0-27.17 3.919-31.075 11.756-2.813 7.837 4.205 11.756 20.999 11.756h604.802c13.435 0 27.156 8.397 41.165 25.204l20.999 25.19zM5026.884 534.658c0 14.554-8.697 21.845-26.037 21.845-19.046 0-28.563-8.397-28.563-25.204-0.56-78.957-12.056-148.125-34.434-207.476-21.845-48.715-59.092-89.593-111.725-122.634-13.995-8.397-20.999-21.545-20.999-39.485 0-19.033 6.717-28.563 20.166-28.563h358.687c13.981 0 20.999 6.717 20.999 20.166v43.677c0 13.981-6.717 20.999-20.166 20.999h-73.086c-47.596-4.478-75.899 20.166-84.842 73.919v242.756zM4852.163 534.658c0 14.554-7.564 21.845-22.678 21.845-16.247 0-24.358-6.717-24.358-20.166v-276.357c0-19.046 4.751-18.773 14.281 0.847 24.057 67.734 34.98 159.020 32.754 273.831zM5023.526 716.097c0 14.554-7.564 21.845-22.678 21.845-16.247 0-24.358-6.717-24.358-20.166v-116.763c0-14.008 7.564-20.999 22.678-20.999 16.234 0 24.358 6.717 24.358 20.166v115.917zM5204.965 534.658c0 14.554-8.697 21.845-26.037 21.845-18.487 0-27.716-6.717-27.716-20.166v-172.196c3.905-17.913 14.828-25.764 32.754-23.525 13.981 0 20.999 6.717 20.999 20.166v173.875z" horiz-adv-x="5461" />
<glyph unicode="&#xe60d;" d="M512.003 893.771c245.802 0 445.773-199.971 445.773-445.768 0-245.802-199.971-445.773-445.773-445.773s-445.773 199.971-445.773 445.773c0 245.797 199.971 445.768 445.773 445.768M512.003 960c-282.768 0-512.003-229.229-512.003-511.997 0-282.773 229.235-512.003 512.003-512.003 282.773 0 512.003 229.229 512.003 512.003 0 282.768-229.229 511.997-512.003 511.997v0zM366.808 736.375v-573.361l436.618 286.681z" />
<glyph unicode="&#xe60e;" d="M512.003 960c-282.768 0-512.003-229.229-512.003-511.997 0-282.773 229.235-512.003 512.003-512.003 282.773 0 512.003 229.229 512.003 512.003 0 282.768-229.229 511.997-512.003 511.997zM366.808 163.013v573.361l436.618-286.681-436.618-286.681z" />
<glyph unicode="&#xe60f;" d="M0 559.91h1091.987v-204.752h-1091.987v204.752zM0 140.752h1091.987v-204.752h-1091.987v204.752zM0 960h1091.987v-204.752h-1091.987v204.752z" horiz-adv-x="1092" />
<glyph unicode="&#xe61f;" d="M1003.107 960.007l20.898-20.898-1003.099-1003.099-20.898 20.898 1003.099 1003.099zM1024.022-43.107l-20.898-20.898-1003.099 1003.099 20.898 20.898 1003.099-1003.099z" />
<glyph unicode="&#xe620;" d="M3008.911 870.918c0-30.363-15.516-59.923-43.471-76.643l-1415.596-845.657c-28.178-16.853-63.312-16.853-91.49 0l-1414.927 845.657c-42.312 25.28-56 80.076-30.809 122.299 25.28 42.267 80.031 56.044 122.254 30.809l1369.227-818.326 1369.896 818.326c42.267 25.236 97.019 11.459 122.254-30.809 8.605-14.312 12.662-30.095 12.662-45.656z" horiz-adv-x="3009" />
<glyph unicode="&#xf003;" d="M950.858 100.571v438.858q-18.286-20.571-39.429-37.714-153.142-117.714-243.429-193.142-29.142-24.571-47.429-38.286t-49.429-27.714-58.571-14h-1.142q-27.429 0-58.571 14t-49.429 27.714-47.429 38.286q-90.286 75.429-243.429 193.142-21.142 17.142-39.429 37.714v-438.858q0-7.429 5.429-12.858t12.858-5.429h841.142q7.429 0 12.858 5.429t5.429 12.858zM950.858 701.142v14t-0.286 7.429-1.714 7.142-3.142 5.142-5.142 4.286-8 1.429h-841.142q-7.429 0-12.858-5.429t-5.429-12.858q0-96 84-162.286 110.286-86.858 229.142-181.142 3.429-2.858 20-16.858t26.286-21.429 25.429-18 28.858-15.714 24.571-5.142h1.142q11.429 0 24.571 5.142t28.858 15.714 25.429 18 26.286 21.429 20 16.858q118.858 94.286 229.142 181.142 30.858 24.571 57.429 66t26.571 75.142zM1024 722.286v-621.714q0-37.714-26.858-64.571t-64.571-26.858h-841.142q-37.714 0-64.571 26.858t-26.858 64.571v621.714q0 37.714 26.858 64.571t64.571 26.858h841.142q37.714 0 64.571-26.858t26.858-64.571z" />
</font>
</defs>
</svg>
