<?xml version="1.0" encoding="utf-8"?>
<!-- Generator: Adobe Illustrator 15.1.0, SVG Export Plug-In . SVG Version: 6.00 Build 0)  -->
<!DOCTYPE svg PUBLIC "-//W3C//DTD SVG 1.1//EN" "http://www.w3.org/Graphics/SVG/1.1/DTD/svg11.dtd">
<svg version="1.1" id="Layer_1" xmlns="http://www.w3.org/2000/svg" xmlns:xlink="http://www.w3.org/1999/xlink" x="0px" y="0px"
	 width="500px" height="500px" viewBox="0 0 500 500" enable-background="new 0 0 500 500" xml:space="preserve">
<g>
	<g>
		<rect x="35.707" y="131.825" fill="#1D1D1B" width="3" height="188.889"/>
		<rect x="37.207" y="319.214" fill="#1D1D1B" width="330.159" height="3"/>
		<rect x="37.207" y="130.325" fill="#1D1D1B" width="330.159" height="3"/>
		<rect x="365.865" y="131.825" fill="#1D1D1B" width="3" height="188.889"/>
	</g>
	<g>
		<rect x="83.42" y="89.762" fill="#1D1D1B" width="3" height="188.888"/>
		<rect x="84.92" y="277.15" fill="#1D1D1B" width="330.159" height="3"/>
		<rect x="84.92" y="88.262" fill="#1D1D1B" width="330.159" height="3"/>
		<rect x="413.579" y="89.762" fill="#1D1D1B" width="3" height="188.888"/>
	</g>
	
		<rect x="59.564" y="78.99" transform="matrix(0.6613 0.7502 -0.7502 0.6613 103.7963 -8.2773)" fill="#1D1D1B" width="2.999" height="63.607"/>
	
		<rect x="59.563" y="267.878" transform="matrix(0.6614 0.75 -0.75 0.6614 245.4316 55.6606)" fill="#1D1D1B" width="3" height="63.608"/>
	
		<rect x="389.722" y="78.99" transform="matrix(0.6614 0.75 -0.75 0.6614 215.5427 -255.9034)" fill="#1D1D1B" width="3" height="63.607"/>
	
		<rect x="389.722" y="267.878" transform="matrix(0.6614 0.75 -0.75 0.6614 357.2071 -191.9551)" fill="#1D1D1B" width="3" height="63.608"/>
	<g>
		<rect x="296.73" y="147.786" fill="#1D1D1B" width="51.587" height="3"/>
		<rect x="346.817" y="149.286" fill="#1D1D1B" width="3" height="30.952"/>
		<rect x="296.73" y="178.738" fill="#1D1D1B" width="51.587" height="3"/>
		<rect x="295.23" y="149.286" fill="#1D1D1B" width="3" height="30.952"/>
	</g>
	<path fill="#1D1D1B" d="M116.968,123.889"/>
	<g>
		<rect x="99.91" y="121.387" fill="#1D1D1B" width="41.562" height="3"/>
		
			<rect x="113.388" y="92.484" transform="matrix(0.6093 0.7929 -0.7929 0.6093 133.1949 -47.5852)" fill="#1D1D1B" width="3" height="37.785"/>
		
			<rect x="154.952" y="92.484" transform="matrix(0.6093 0.7929 -0.7929 0.6093 149.4328 -80.5422)" fill="#1D1D1B" width="3" height="37.785"/>
		<rect x="129.868" y="98.364" fill="#1D1D1B" width="41.564" height="3"/>
		<rect x="169.932" y="66.958" fill="#1D1D1B" width="3" height="32.905"/>
		<g>
			
				<rect x="113.388" y="59.577" transform="matrix(0.6093 0.7929 -0.7929 0.6093 107.1023 -60.441)" fill="#1D1D1B" width="3" height="37.785"/>
			
				<rect x="154.952" y="59.577" transform="matrix(0.6093 0.7929 -0.7929 0.6093 123.3401 -93.398)" fill="#1D1D1B" width="3" height="37.785"/>
			<rect x="129.868" y="65.457" fill="#1D1D1B" width="41.564" height="3"/>
		</g>
		<rect x="99.908" y="88.482" fill="#1D1D1B" width="41.564" height="3"/>
		<rect x="98.408" y="89.982" fill="#1D1D1B" width="3" height="32.905"/>
		<rect x="139.973" y="89.982" fill="#1D1D1B" width="3" height="32.905"/>
		<rect x="128.368" y="66.957" fill="#1D1D1B" width="3" height="32.907"/>
	</g>
	<g>
		<g>
			<path fill="#1D1D1B" d="M182.73,297.655c-33.911,0-61.5-27.589-61.5-61.5h3c0,32.257,26.243,58.5,58.5,58.5V297.655z"/>
			<path fill="#1D1D1B" d="M123.766,235.707l-3-0.047c0.257-16.438,6.892-31.784,18.681-43.211
				c11.79-11.426,27.34-17.571,43.773-17.321l-0.047,3c-15.668-0.255-30.425,5.606-41.638,16.475
				C130.32,205.472,124.01,220.069,123.766,235.707z"/>
		</g>
		<g>
			<path fill="#1D1D1B" d="M243.751,237.16l-3-0.045c0.236-15.637-5.624-30.421-16.499-41.629
				c-10.875-11.208-25.477-17.51-41.114-17.746l0.045-3c16.439,0.248,31.789,6.874,43.222,18.656S243.999,220.722,243.751,237.16z"
				/>
			<path fill="#1D1D1B" d="M182.791,297.276c-0.646,0-1.293-0.01-1.942-0.03l0.092-2.998c15.635,0.466,30.506-5.146,41.883-15.846
				c11.376-10.698,17.906-25.199,18.385-40.831l2.999,0.092c-0.505,16.433-7.369,31.677-19.329,42.925
				C213.39,291.392,198.51,297.276,182.791,297.276z"/>
		</g>
	</g>
	<g>
		<g>
			<path fill="#1D1D1B" d="M201.115,284.727c-33.911,0-61.5-27.589-61.5-61.5h3c0,32.257,26.243,58.5,58.5,58.5V284.727z"/>
			<path fill="#1D1D1B" d="M142.15,222.778l-3-0.047c0.525-33.581,28.013-60.539,61.478-60.539c0.326,0,0.649,0.002,0.976,0.007
				l-0.047,3C169.278,164.686,142.654,190.525,142.15,222.778z"/>
		</g>
		<g>
			<path fill="#1D1D1B" d="M262.135,224.231l-3-0.045c0.236-15.637-5.623-30.421-16.499-41.629
				c-10.875-11.208-25.476-17.51-41.113-17.746l0.045-3C235.476,162.323,262.646,190.325,262.135,224.231z"/>
			<path fill="#1D1D1B" d="M201.175,284.348c-0.646,0-1.293-0.01-1.942-0.03l0.092-2.998c15.642,0.464,30.506-5.146,41.882-15.846
				c11.376-10.698,17.905-25.199,18.386-40.831l2.998,0.092c-0.504,16.433-7.368,31.677-19.329,42.925
				C231.774,278.463,216.895,284.348,201.175,284.348z"/>
		</g>
	</g>
</g>
</svg>
