<?xml version="1.0" encoding="utf-8"?>
<!-- Generator: Adobe Illustrator 15.1.0, SVG Export Plug-In . SVG Version: 6.00 Build 0)  -->
<!DOCTYPE svg PUBLIC "-//W3C//DTD SVG 1.1//EN" "http://www.w3.org/Graphics/SVG/1.1/DTD/svg11.dtd">
<svg version="1.1" id="Layer_1" xmlns="http://www.w3.org/2000/svg" xmlns:xlink="http://www.w3.org/1999/xlink" x="0px" y="0px"
	 width="380.872px" height="256.757px" viewBox="35.707 65.457 380.872 256.757"
	 enable-background="new 35.707 65.457 380.872 256.757" xml:space="preserve">
<g>
	<g>
		<rect x="35.707" y="131.825" fill="#1D1D1B" width="3" height="188.889"/>
		<rect x="37.207" y="319.214" fill="#1D1D1B" width="330.159" height="3"/>
		<rect x="37.207" y="130.325" fill="#1D1D1B" width="330.159" height="3"/>
		<rect x="365.865" y="131.825" fill="#1D1D1B" width="3" height="188.889"/>
	</g>
	<g>
		<rect x="83.42" y="89.762" fill="#1D1D1B" width="3" height="188.888"/>
		<rect x="84.92" y="277.15" fill="#1D1D1B" width="330.159" height="3"/>
		<rect x="84.92" y="88.262" fill="#1D1D1B" width="330.159" height="3"/>
		<rect x="413.579" y="89.762" fill="#1D1D1B" width="3" height="188.888"/>
	</g>
	
		<rect x="59.564" y="78.986" transform="matrix(0.6613 0.7502 -0.7502 0.6613 103.796 -8.2776)" fill="#1D1D1B" width="2.999" height="63.615"/>
	
		<rect x="59.563" y="267.881" transform="matrix(0.6614 0.75 -0.75 0.6614 245.4319 55.6609)" fill="#1D1D1B" width="3" height="63.604"/>
	
		<rect x="389.722" y="78.991" transform="matrix(0.6614 0.75 -0.75 0.6614 215.5419 -255.9037)" fill="#1D1D1B" width="3" height="63.604"/>
	
		<rect x="389.722" y="267.879" transform="matrix(0.6613 0.7502 -0.7502 0.6613 357.3262 -191.9633)" fill="#1D1D1B" width="2.999" height="63.604"/>
	<g>
		<rect x="296.73" y="147.786" fill="#1D1D1B" width="51.587" height="3"/>
		<rect x="346.817" y="149.286" fill="#1D1D1B" width="3" height="30.952"/>
		<rect x="296.73" y="178.738" fill="#1D1D1B" width="51.587" height="3"/>
		<rect x="295.23" y="149.286" fill="#1D1D1B" width="3" height="30.952"/>
	</g>
	<path fill="#1D1D1B" d="M116.968,123.889"/>
	<g>
		<rect x="99.91" y="121.387" fill="#1D1D1B" width="41.562" height="3"/>
		
			<rect x="113.384" y="92.484" transform="matrix(0.6093 0.7929 -0.7929 0.6093 133.1972 -47.5815)" fill="#1D1D1B" width="3" height="37.783"/>
		
			<rect x="154.947" y="92.485" transform="matrix(0.6093 0.7929 -0.7929 0.6093 149.4302 -80.538)" fill="#1D1D1B" width="3" height="37.783"/>
		<rect x="129.868" y="98.364" fill="#1D1D1B" width="41.564" height="3"/>
		<rect x="169.932" y="66.958" fill="#1D1D1B" width="3" height="32.905"/>
		<g>
			
				<rect x="113.39" y="59.575" transform="matrix(0.6092 0.793 -0.793 0.6092 107.1188 -60.4445)" fill="#1D1D1B" width="3" height="37.784"/>
			
				<rect x="154.952" y="59.578" transform="matrix(0.6093 0.7929 -0.7929 0.6093 123.3449 -93.3982)" fill="#1D1D1B" width="3" height="37.783"/>
			<rect x="129.868" y="65.457" fill="#1D1D1B" width="41.564" height="3"/>
		</g>
		<rect x="99.908" y="88.482" fill="#1D1D1B" width="41.564" height="3"/>
		<rect x="98.408" y="89.982" fill="#1D1D1B" width="3" height="32.905"/>
		<rect x="139.973" y="89.982" fill="#1D1D1B" width="3" height="32.905"/>
		<rect x="128.368" y="66.957" fill="#1D1D1B" width="3" height="32.907"/>
	</g>
	<path d="M168.232,309.168c-38.021,0-68.953-30.934-68.953-68.953c0-38.021,30.932-68.953,68.953-68.953
		s68.953,30.932,68.953,68.953C237.185,278.234,206.252,309.168,168.232,309.168z M168.232,174.262
		c-36.367,0-65.953,29.586-65.953,65.953c0,36.366,29.586,65.953,65.953,65.953c36.366,0,65.953-29.587,65.953-65.953
		C234.185,203.848,204.598,174.262,168.232,174.262z"/>
	<path d="M189.232,297.168c-38.021,0-68.953-30.934-68.953-68.953c0-38.021,30.932-68.953,68.953-68.953
		s68.954,30.932,68.954,68.953C258.186,266.234,227.252,297.168,189.232,297.168z M189.232,162.262
		c-36.367,0-65.953,29.586-65.953,65.953c0,36.366,29.586,65.953,65.953,65.953c36.366,0,65.954-29.587,65.954-65.953
		C255.186,191.848,225.598,162.262,189.232,162.262z"/>
</g>
</svg>
