<?xml version="1.0" encoding="utf-8"?>
<!-- Generator: Adobe Illustrator 15.1.0, SVG Export Plug-In . SVG Version: 6.00 Build 0)  -->
<!DOCTYPE svg PUBLIC "-//W3C//DTD SVG 1.1//EN" "http://www.w3.org/Graphics/SVG/1.1/DTD/svg11.dtd">
<svg version="1.1" id="Layer_1" xmlns="http://www.w3.org/2000/svg" xmlns:xlink="http://www.w3.org/1999/xlink" x="0px" y="0px"
	 width="398.279px" height="393.186px" viewBox="0 0 398.279 393.186" enable-background="new 0 0 398.279 393.186"
	 xml:space="preserve">
<g>
	<g>
		<g>
			
				<rect x="258.796" y="133.333" transform="matrix(0.9984 0.056 -0.056 0.9984 15.1 -14.1677)" fill="#1D1D1B" width="2.999" height="257.922"/>
			
				<rect x="151.325" y="260.788" transform="matrix(0.0524 0.9986 -0.9986 0.0524 527.5272 -31.3593)" fill="#1D1D1B" width="257.926" height="2.999"/>
			<rect x="253.087" y="389.574" fill="#1D1D1B" width="33.969" height="3"/>
		</g>
		<rect x="263.087" y="379.574" fill="#1D1D1B" width="33.969" height="3"/>
		
			<rect x="263.794" y="133.52" transform="matrix(0.9998 0.0176 -0.0176 0.9998 4.5661 -4.6259)" fill="#1D1D1B" width="2.999" height="247.553"/>
		
			<rect x="160.956" y="255.8" transform="matrix(0.0946 0.9955 -0.9955 0.0946 514.4573 -51.0604)" fill="#1D1D1B" width="248.688" height="3"/>
		
			<rect x="256.587" y="378.992" transform="matrix(0.7071 0.7071 -0.7071 0.7071 348.5795 -69.4199)" fill="#1D1D1B" width="3" height="14.142"/>
		
			<rect x="290.556" y="379.015" transform="matrix(0.7071 0.7071 -0.7071 0.7071 358.5453 -93.4325)" fill="#1D1D1B" width="3" height="14.142"/>
	</g>
	<rect x="226.883" y="131.826" fill="#1D1D1B" width="87.304" height="3"/>
	<g>
		<rect x="225.383" y="10.311" fill="#1D1D1B" width="3" height="123.016"/>
		<rect x="312.687" y="10.311" fill="#1D1D1B" width="3" height="123.016"/>
		<rect x="226.883" y="9.811" fill="#1D1D1B" width="17.927" height="3"/>
		<rect x="260.541" y="9.811" fill="#1D1D1B" width="17.926" height="3"/>
		<rect x="296.097" y="9.811" fill="#1D1D1B" width="17.926" height="3"/>
		<rect x="242.31" y="11.311" fill="#1D1D1B" width="3" height="102.173"/>
		<rect x="295.597" y="11.311" fill="#1D1D1B" width="3" height="102.173"/>
		<rect x="275.967" y="10.311" fill="#1D1D1B" width="3" height="102.173"/>
		<rect x="259.796" y="11.311" fill="#1D1D1B" width="3" height="102.173"/>
		<rect x="243.81" y="110.984" fill="#1D1D1B" width="17.487" height="3"/>
		<rect x="278.313" y="110.984" fill="#1D1D1B" width="17.484" height="3"/>
	</g>
	<g>
		<rect x="232.315" y="0.889" fill="#1D1D1B" width="3" height="123.017"/>
		<rect x="319.617" y="0.889" fill="#1D1D1B" width="3" height="123.017"/>
		<rect x="233.815" y="0.389" fill="#1D1D1B" width="17.926" height="3"/>
		<rect x="267.474" y="0.389" fill="#1D1D1B" width="17.924" height="3"/>
		<rect x="303.026" y="0.389" fill="#1D1D1B" width="17.927" height="3"/>
		<rect x="249.242" y="1.889" fill="#1D1D1B" width="3" height="102.174"/>
		<rect x="302.526" y="1.889" fill="#1D1D1B" width="3" height="102.174"/>
		<rect x="282.899" y="0.889" fill="#1D1D1B" width="3" height="102.174"/>
		<rect x="266.728" y="1.889" fill="#1D1D1B" width="3" height="102.174"/>
		<rect x="250.742" y="101.563" fill="#1D1D1B" width="17.485" height="3"/>
		<rect x="285.245" y="101.563" fill="#1D1D1B" width="17.488" height="3"/>
	</g>
	
		<rect x="228.86" y="-0.241" transform="matrix(0.8054 0.5928 -0.5928 0.8054 48.162 -135.463)" fill="#1D1D1B" width="3" height="11.698"/>
	
		<rect x="245.786" y="0.76" transform="matrix(0.8054 0.5928 -0.5928 0.8054 52.0491 -145.3022)" fill="#1D1D1B" width="3" height="11.696"/>
	
		<rect x="263.262" y="0.751" transform="matrix(0.8054 0.5928 -0.5928 0.8054 55.4459 -155.663)" fill="#1D1D1B" width="3" height="11.697"/>
	
		<rect x="279.434" y="-0.249" transform="matrix(0.8055 0.5926 -0.5926 0.8055 57.9686 -165.4012)" fill="#1D1D1B" width="3.001" height="11.7"/>
	
		<rect x="298.555" y="1.041" transform="matrix(0.8462 0.5329 -0.5329 0.8462 49.6689 -158.872)" fill="#1D1D1B" width="2.998" height="11.133"/>
	
		<rect x="316.092" y="0.703" transform="matrix(0.7796 0.6262 -0.6262 0.7796 73.811 -197.5443)" fill="#1D1D1B" width="2.999" height="10.803"/>
	
		<rect x="316.15" y="122.768" transform="matrix(0.8054 0.5928 -0.5928 0.8054 138.0703 -163.2653)" fill="#1D1D1B" width="3" height="11.697"/>
	
		<rect x="299.415" y="102.349" transform="matrix(0.8795 0.4759 -0.4759 0.8795 87.7835 -130.1548)" fill="#1D1D1B" width="3" height="11.849"/>
	
		<rect x="280.268" y="101.937" transform="matrix(0.8054 0.5927 -0.5927 0.8054 118.719 -146.0377)" fill="#1D1D1B" width="2.999" height="11.695"/>
	
		<rect x="263.262" y="101.924" transform="matrix(0.8054 0.5928 -0.5928 0.8054 115.4204 -135.9708)" fill="#1D1D1B" width="3" height="11.699"/>
	
		<rect x="245.788" y="101.942" transform="matrix(0.8055 0.5926 -0.5926 0.8055 111.9846 -125.5828)" fill="#1D1D1B" width="3.001" height="11.697"/>
	
		<rect x="228.851" y="122.765" transform="matrix(0.8054 0.5928 -0.5928 0.8054 121.0775 -111.5152)" fill="#1D1D1B" width="3" height="11.7"/>
	<rect x="233.815" y="122.405" fill="#1D1D1B" width="87.302" height="3"/>
</g>
<g>
	<path fill="#1D1D1B" d="M107.096,136.438c-24.896,0-45.151-28.265-45.151-63.008S82.2,10.422,107.096,10.422
		s45.151,28.265,45.151,63.008S131.993,136.438,107.096,136.438z M107.096,13.422c-23.242,0-42.151,26.919-42.151,60.008
		s18.909,60.008,42.151,60.008c23.242,0,42.151-26.919,42.151-60.008S130.338,13.422,107.096,13.422z"/>
	<g>
		<g>
			
				<rect x="98.599" y="133.944" transform="matrix(0.9984 0.056 -0.056 0.9984 14.8779 -5.1924)" fill="#1D1D1B" width="3" height="257.922"/>
			
				<rect x="-8.869" y="261.397" transform="matrix(0.0524 0.9986 -0.9986 0.0524 376.3367 129.1923)" fill="#1D1D1B" width="257.925" height="3"/>
			<rect x="92.888" y="390.186" fill="#1D1D1B" width="33.97" height="3"/>
		</g>
		<rect x="102.888" y="380.186" fill="#1D1D1B" width="33.969" height="3"/>
		
			<rect x="103.595" y="134.13" transform="matrix(0.9998 0.0176 -0.0176 0.9998 4.5498 -1.8075)" fill="#1D1D1B" width="3" height="247.553"/>
		
			<rect x="0.754" y="256.411" transform="matrix(0.0946 0.9955 -0.9955 0.0946 370.0183 108.9745)" fill="#1D1D1B" width="248.69" height="3"/>
		
			<rect x="96.388" y="379.604" transform="matrix(0.7069 0.7073 -0.7073 0.7069 302.1694 44.084)" fill="#1D1D1B" width="3" height="14.141"/>
		
			<rect x="130.357" y="379.628" transform="matrix(0.7069 0.7073 -0.7073 0.7069 312.1417 20.0654)" fill="#1D1D1B" width="3" height="14.141"/>
	</g>
	<path fill="#1D1D1B" d="M116.873,126.016c-24.896,0-45.15-28.266-45.15-63.008c0-34.743,20.254-63.009,45.15-63.009
		s45.151,28.266,45.151,63.009C162.024,97.75,141.769,126.016,116.873,126.016z M116.873,3c-23.242,0-42.15,26.919-42.15,60.009
		c0,33.089,18.909,60.008,42.15,60.008c23.242,0,42.151-26.919,42.151-60.008S140.115,3,116.873,3z"/>
</g>
</svg>
