<?xml version="1.0" encoding="utf-8"?>
<!-- Generator: Adobe Illustrator 15.1.0, SVG Export Plug-In . SVG Version: 6.00 Build 0)  -->
<!DOCTYPE svg PUBLIC "-//W3C//DTD SVG 1.1//EN" "http://www.w3.org/Graphics/SVG/1.1/DTD/svg11.dtd">
<svg version="1.1" id="Layer_1" xmlns="http://www.w3.org/2000/svg" xmlns:xlink="http://www.w3.org/1999/xlink" x="0px" y="0px"
	 width="423.146px" height="324.94px" viewBox="0 0 423.146 324.94" enable-background="new 0 0 423.146 324.94"
	 xml:space="preserve">
<g>
	<g>
		<rect y="173.44" fill="#1D1D1B" width="3" height="150"/>
		<rect x="1.5" y="171.94" fill="#1D1D1B" width="172.951" height="3"/>
		<rect x="172.951" y="173.44" fill="#1D1D1B" width="3" height="150"/>
		<rect x="1.5" y="321.94" fill="#1D1D1B" width="172.951" height="3"/>
	</g>
	<g>
		<rect x="27.847" y="139.014" fill="#1D1D1B" width="3" height="150"/>
		<rect x="29.347" y="137.514" fill="#1D1D1B" width="172.95" height="3"/>
		<rect x="200.798" y="139.014" fill="#1D1D1B" width="3" height="150"/>
		<rect x="29.347" y="287.514" fill="#1D1D1B" width="172.95" height="3"/>
	</g>
	
		<rect x="13.921" y="134.093" transform="matrix(-0.7773 -0.6292 0.6292 -0.7773 -70.8891 287.3689)" fill="#1D1D1B" width="3" height="44.279"/>
	
		<rect x="13.916" y="284.082" transform="matrix(-0.7775 -0.6289 0.6289 -0.7775 -165.1788 554.0005)" fill="#1D1D1B" width="3" height="44.278"/>
	
		<rect x="186.885" y="134.085" transform="matrix(-0.7772 -0.6292 0.6292 -0.7772 236.4954 396.1821)" fill="#1D1D1B" width="3" height="44.276"/>
	
		<rect x="186.861" y="284.086" transform="matrix(-0.7773 -0.6292 0.6292 -0.7773 142.1015 662.7545)" fill="#1D1D1B" width="3" height="44.278"/>
</g>
<g>
	<circle fill="none" stroke="#000000" stroke-width="3" stroke-miterlimit="10" cx="102.948" cy="78.213" r="61.101"/>
	<circle fill="none" stroke="#000000" stroke-width="3" stroke-miterlimit="10" cx="119.588" cy="65.32" r="61.101"/>
</g>
<g>
	<g>
		<rect x="219.35" y="173.8" fill="#1D1D1B" width="3" height="150"/>
		<rect x="220.85" y="172.3" fill="#1D1D1B" width="172.949" height="3"/>
		<rect x="392.3" y="173.8" fill="#1D1D1B" width="3" height="150"/>
		<rect x="220.85" y="322.3" fill="#1D1D1B" width="172.949" height="3"/>
	</g>
	<g>
		<rect x="247.195" y="139.375" fill="#1D1D1B" width="3" height="149.999"/>
		<rect x="248.695" y="137.875" fill="#1D1D1B" width="172.95" height="3"/>
		<rect x="420.146" y="139.375" fill="#1D1D1B" width="3" height="149.999"/>
		<rect x="248.695" y="287.874" fill="#1D1D1B" width="172.95" height="3"/>
	</g>
	
		<rect x="233.277" y="134.459" transform="matrix(-0.7773 -0.6292 0.6292 -0.7773 318.7344 426.0343)" fill="#1D1D1B" width="3" height="44.28"/>
	
		<rect x="233.259" y="284.448" transform="matrix(-0.7774 -0.629 0.629 -0.7774 224.4137 692.5927)" fill="#1D1D1B" width="3.001" height="44.278"/>
	
		<rect x="406.236" y="134.47" transform="matrix(-0.7773 -0.6292 0.6292 -0.7773 626.1223 534.8732)" fill="#1D1D1B" width="3" height="44.279"/>
	
		<rect x="406.204" y="284.451" transform="matrix(-0.7776 -0.6288 0.6288 -0.7776 531.9291 801.3518)" fill="#1D1D1B" width="3" height="44.278"/>
</g>
<g>
	<circle fill="none" stroke="#000000" stroke-width="3" stroke-miterlimit="10" cx="322.296" cy="78.573" r="61.101"/>
	<circle fill="none" stroke="#000000" stroke-width="3" stroke-miterlimit="10" cx="338.938" cy="65.68" r="61.101"/>
</g>
</svg>
