<?xml version="1.0" encoding="utf-8"?>
<!-- Generator: Adobe Illustrator 15.1.0, SVG Export Plug-In . SVG Version: 6.00 Build 0)  -->
<!DOCTYPE svg PUBLIC "-//W3C//DTD SVG 1.1//EN" "http://www.w3.org/Graphics/SVG/1.1/DTD/svg11.dtd">
<svg version="1.1" id="Layer_1" xmlns="http://www.w3.org/2000/svg" xmlns:xlink="http://www.w3.org/1999/xlink" x="0px" y="0px"
	 width="366.159px" height="376.81px" viewBox="0 0 366.159 376.81" enable-background="new 0 0 366.159 376.81"
	 xml:space="preserve">
<g>
	<g>
		<rect x="-130.644" y="241.27" transform="matrix(0.003 1 -1 0.003 244.66 240.1466)" fill="#1D1D1B" width="265.081" height="3"/>
		<rect x="2.293" y="373.81" fill="#1D1D1B" width="279.365" height="3"/>
		<rect x="1.5" y="108.73" fill="#1D1D1B" width="280.159" height="3"/>
		<rect x="280.159" y="110.23" fill="#1D1D1B" width="3" height="265.08"/>
	</g>
	<g>
		<rect x="-47.644" y="167.27" transform="matrix(0.003 1 -1 0.003 253.4119 83.3685)" fill="#1D1D1B" width="265.081" height="3"/>
		<rect x="85.293" y="299.81" fill="#1D1D1B" width="279.365" height="3"/>
		<rect x="84.5" y="34.73" fill="#1D1D1B" width="280.159" height="3"/>
		<rect x="363.159" y="36.23" fill="#1D1D1B" width="3" height="265.08"/>
	</g>
	
		<rect x="41.5" y="17.631" transform="matrix(0.6654 0.7465 -0.7465 0.6654 69.0515 -7.5967)" fill="#1D1D1B" width="3" height="111.198"/>
	
		<rect x="321.659" y="17.631" transform="matrix(0.6654 0.7465 -0.7465 0.6654 162.7887 -216.728)" fill="#1D1D1B" width="3" height="111.198"/>
	
		<rect x="321.659" y="282.711" transform="matrix(0.6656 0.7463 -0.7463 0.6656 360.5629 -128.0442)" fill="#1D1D1B" width="2.999" height="111.198"/>
	
		<rect x="42.294" y="282.711" transform="matrix(0.6656 0.7463 -0.7463 0.6656 267.1364 80.4546)" fill="#1D1D1B" width="2.999" height="111.198"/>
	
		<rect x="41.5" y="152.545" transform="matrix(0.6656 0.7463 -0.7463 0.6656 169.7247 37.5163)" fill="#1D1D1B" width="2.999" height="111.198"/>
	
		<rect x="321.66" y="152.545" transform="matrix(0.6656 0.7463 -0.7463 0.6656 263.4169 -171.5754)" fill="#1D1D1B" width="2.999" height="111.198"/>
	<rect x="1.5" y="243.645" fill="#1D1D1B" width="280.16" height="3"/>
	<rect x="84.5" y="169.645" fill="#1D1D1B" width="280.16" height="3"/>
	<rect x="42.293" y="72.522" fill="#1D1D1B" width="3" height="134.915"/>
	
		<rect x="262.345" y="26.223" transform="matrix(0.6654 0.7465 -0.7465 0.6654 128.6053 -178.8786)" fill="#1D1D1B" width="3" height="55.599"/>
	<rect x="43.793" y="71.022" fill="#1D1D1B" width="199.302" height="3"/>
	<rect x="43.793" y="206.291" transform="matrix(1 0.0025 -0.0025 1 0.5265 -0.4637)" fill="#1D1D1B" width="279.366" height="3"/>
	<rect x="241.595" y="72.522" fill="#1D1D1B" width="3" height="135.622"/>
	
		<rect x="312.825" y="225.145" transform="matrix(0.5244 0.8515 -0.8515 0.5244 352.104 -177.0689)" fill="#1D1D1B" width="43.454" height="3"/>
	
		<rect x="232.762" y="225.145" transform="matrix(0.5244 0.8515 -0.8515 0.5244 314.0242 -108.8961)" fill="#1D1D1B" width="43.454" height="3"/>
	<rect x="265.881" y="243.645" fill="#1D1D1B" width="80.063" height="3"/>
	
		<rect x="353.802" y="222.737" transform="matrix(0.7032 0.711 -0.711 0.7032 273.179 -182.6045)" fill="#1D1D1B" width="3" height="26.315"/>
	
		<rect x="273.738" y="222.737" transform="matrix(0.7032 0.711 -0.711 0.7032 249.4153 -125.6791)" fill="#1D1D1B" width="3" height="26.315"/>
	<rect x="284.595" y="225.145" fill="#1D1D1B" width="80.063" height="3"/>
	
		<rect x="200.096" y="297.402" transform="matrix(0.7032 0.711 -0.711 0.7032 280.6444 -51.1577)" fill="#1D1D1B" width="3" height="26.315"/>
	
		<rect x="236.917" y="233.947" transform="matrix(0.7149 0.6993 -0.6993 0.7149 259.0325 -88.8098)" fill="#1D1D1B" width="3" height="78.56"/>
	
		<rect x="37.392" y="17.365" transform="matrix(0.7607 0.6491 -0.6491 0.7607 27.5918 -37.121)" fill="#1D1D1B" width="53.509" height="3"/>
	
		<rect x="21.147" y="-2.468" transform="matrix(0.9319 0.3626 -0.3626 0.9319 21.7991 -4.4098)" fill="#1D1D1B" width="3" height="116.666"/>
	<rect x="43.793" fill="#1D1D1B" width="275.961" height="3"/>
	
		<rect x="299.206" y="-1.74" transform="matrix(0.9438 0.3306 -0.3306 0.9438 35.3839 -96.2837)" fill="#1D1D1B" width="3.001" height="115.211"/>
	
		<rect x="313.823" y="17.365" transform="matrix(0.791 0.6118 -0.6118 0.791 83.0561 -205.4167)" fill="#1D1D1B" width="56.768" height="3"/>
</g>
</svg>
