<?xml version="1.0" encoding="utf-8"?>
<!-- Generator: Adobe Illustrator 15.1.0, SVG Export Plug-In . SVG Version: 6.00 Build 0)  -->
<!DOCTYPE svg PUBLIC "-//W3C//DTD SVG 1.1//EN" "http://www.w3.org/Graphics/SVG/1.1/DTD/svg11.dtd">
<svg version="1.1" id="Layer_1" xmlns="http://www.w3.org/2000/svg" xmlns:xlink="http://www.w3.org/1999/xlink" x="0px" y="0px"
	 width="400px" height="75px" viewBox="0 0 400 75" enable-background="new 0 0 400 75" xml:space="preserve">
<g>
	<g>
		<path d="M6.336,64.072V11.657H19.44c7.295,0,13.511,2.545,18.648,7.632c5.136,5.088,7.704,11.257,7.704,18.504
			c0,7.248-2.568,13.439-7.704,18.576c-5.137,5.137-11.353,7.703-18.648,7.703H6.336z M10.224,60.185h9.216
			c6.192,0,11.472-2.184,15.84-6.552c4.367-4.367,6.552-9.648,6.552-15.84c0-6.192-2.185-11.448-6.552-15.768
			c-4.368-4.32-9.648-6.48-15.84-6.48h-9.216V60.185z"/>
		<path d="M58.391,45.641V11.657h3.888v33.839c0,4.177,1.487,7.849,4.464,11.017c2.976,3.168,6.863,4.752,11.664,4.752
			c4.128,0,7.776-1.499,10.944-4.5c3.168-2.999,4.752-6.876,4.752-11.628v-33.48h3.888v33.48c0,5.904-1.98,10.717-5.94,14.436
			c-3.96,3.721-8.508,5.58-13.644,5.58c-5.904,0-10.716-1.967-14.436-5.904C60.25,55.313,58.391,50.777,58.391,45.641z"/>
		<path d="M115.271,64.072V11.657h13.104c4.079,0,7.368,1.332,9.864,3.996c2.495,2.664,3.744,5.7,3.744,9.108
			c0,3.265-0.864,5.832-2.592,7.704c-0.432,0.432-1.177,0.96-2.232,1.584c-1.056,0.625-1.848,0.984-2.376,1.08
			c1.775,0.192,3.924,1.56,6.444,4.104c2.52,2.545,3.78,5.785,3.78,9.721c0,4.512-1.476,8.16-4.428,10.943
			c-2.952,2.785-6.349,4.176-10.188,4.176H115.271z M119.159,34.409h11.16c2.16-0.384,3.996-1.44,5.508-3.168
			c1.512-1.728,2.268-3.863,2.268-6.408c0-2.448-0.9-4.608-2.7-6.48c-1.8-1.872-4.14-2.808-7.02-2.808h-9.216V34.409z
			 M119.159,60.185h11.16c2.832,0,5.339-1.031,7.524-3.096c2.184-2.063,3.276-4.752,3.276-8.063c0-2.736-0.912-5.209-2.736-7.416
			c-1.825-2.208-4.201-3.312-7.128-3.312h-12.096V60.185z"/>
		<path d="M160.486,64.072V11.657h3.888v48.528h27.648v3.888H160.486z"/>
		<path d="M203.181,64.072V11.657h3.889v52.416H203.181z"/>
		<path d="M224.348,64.072V9.929l37.944,45.216V11.657h3.888v54.144l-37.943-45.216v43.487H224.348z"/>
	</g>
	<g>
		<path d="M298.843,10.974c0-1.23,0.615-1.804,1.846-1.723l6.768,0.492c0.861,0.042,1.784,0.165,2.769,0.369
			c0.943,0.698,0.738,1.415-0.615,2.153c-1.148,0.165-1.538,1.477-1.169,3.938c0,1.026,0.492,1.538,1.477,1.538h9.721
			c0.984,0,2.009-0.615,3.076-1.846l2.092-2.584c1.066-1.312,2.193-1.456,3.384-0.431l4.184,3.507
			c1.066,0.903,1.374,1.6,0.923,2.092c-0.533,0.615-1.415,0.923-2.646,0.923h-20.672c-1.025,0-1.538,0.492-1.538,1.477v2.461
			c0,1.026,0.492,1.538,1.477,1.538h5.291c0.984,0.369,2.297-0.328,3.938-2.092c1.189-1.025,2.42-1.148,3.691-0.369l4.922,3.199
			c1.066,0.984,1.6,1.6,1.6,1.846c-0.206,0.246-0.615,0.554-1.23,0.923c-0.656,0.329-0.984,0.984-0.984,1.969v13.474
			c0,1.23-0.615,1.948-1.846,2.153c-2.133,0.246-4.267,0.554-6.398,0.923c-1.395,0.206-2.092-0.103-2.092-0.923
			c0-0.984-0.492-1.477-1.477-1.477h-4.799c-1.025,0-0.944,0.431,0.246,1.292c4.922,3.528,11.997,5.906,21.226,7.137
			c1.354,0.206,2.03,0.472,2.03,0.8c0,0.533-0.554,1.292-1.661,2.276c-1.641,1.969-2.769,4.45-3.384,7.444
			c-0.287,1.312-1.169,1.662-2.646,1.047c-3.691-1.601-6.974-3.508-9.844-5.723c-3.282-3.076-5.559-5.906-6.829-8.49
			c-0.821-1.723-1.23-1.907-1.23-0.554V64.5c0,1.23-0.615,1.947-1.846,2.152c-1.846,0.164-3.691,0.391-5.537,0.678
			c-1.477,0.162-2.215-0.369-2.215-1.6v-9.168c0-0.984-0.615-1.066-1.846-0.246c-5.537,3.732-11.896,6.562-19.072,8.49
			c-1.437,0.41-2.298,0.369-2.584-0.123c-0.287-0.451,0.225-1.006,1.538-1.661c7.834-3.733,13.966-9.413,18.396-17.042
			c0.615-0.984,0.431-1.477-0.554-1.477h-2.953c-1.025,0-1.538,0.391-1.538,1.169c0,0.821-0.615,1.333-1.846,1.538l-6.152,0.923
			c-1.23,0.165-1.846-0.369-1.846-1.6V23.647c0-1.23,0.615-1.681,1.846-1.354l6.768,2.215c0.697,0.246,1.538,0.369,2.522,0.369
			h5.783c1.024,0,1.538-0.492,1.538-1.477V20.94c0-1.025-0.492-1.538-1.477-1.538h-19.257c-1.23,0-1.948-0.225-2.153-0.677
			c-0.329-0.656,0.062-0.984,1.169-0.984h20.18c1.024,0,1.538-0.492,1.538-1.477V10.974z M298.843,28.139
			c0-1.025-0.492-1.538-1.477-1.538h-5.599c-1.025,0-1.538,0.492-1.538,1.477v4.122c0,1.026,0.492,1.538,1.477,1.538h5.599
			c1.024,0,1.538-0.492,1.538-1.477V28.139z M298.843,36.998c0-1.066-0.472-1.6-1.415-1.6h-5.66c-1.025,0-1.538,0.492-1.538,1.477
			v4.43c0,1.025,0.492,1.538,1.477,1.538h5.599c1.024,0,1.538-0.492,1.538-1.477V36.998z M316.808,28.139
			c0-1.025-0.492-1.538-1.477-1.538h-5.353c-1.025,0-1.538,0.492-1.538,1.477v4.122c0,1.026,0.492,1.538,1.477,1.538h5.353
			c1.024,0,1.538-0.492,1.538-1.477V28.139z M316.808,36.998c0-1.066-0.472-1.6-1.415-1.6h-5.414c-1.025,0-1.538,0.492-1.538,1.477
			v4.43c0,1.025,0.492,1.538,1.477,1.538h5.353c1.024,0,1.538-0.492,1.538-1.477V36.998z"/>
		<path d="M388.667,10.851c1.107-1.312,2.235-1.497,3.384-0.554l2.953,2.399c1.394,1.19,1.886,2.092,1.477,2.707
			c-0.329,0.575-1.087,0.861-2.276,0.861h-14.458c-1.025,0-1.538,0.492-1.538,1.477v8.552c0,1.026,0.409,1.538,1.23,1.538
			c1.024,0.452,2.316-0.574,3.876-3.076c1.107-1.189,2.276-1.415,3.507-0.677l5.353,3.322c1.846,0.698,2.235,1.661,1.169,2.892
			c-1.025,1.026-1.538,1.969-1.538,2.83V64.5c0,1.23-0.615,1.928-1.846,2.092l-6.891,0.799c-1.23,0.123-1.846-0.43-1.846-1.66v-1.97
			c0-1.026-0.492-1.538-1.477-1.538h-26.271c-1.025,0-1.538,0.492-1.538,1.477v1.293c0,1.23-0.615,1.947-1.846,2.152l-6.275,0.738
			c-1.313,0.205-1.969-0.307-1.969-1.537V25.062c0-1.23,0.615-1.6,1.846-1.107l6.768,2.953c1.354,0.78,2.297,1.087,2.83,0.923
			c0.574,0,0.861-0.492,0.861-1.477v-8.552c0-1.025-0.492-1.538-1.477-1.538h-12.12c-1.23,0-1.99-0.287-2.276-0.861
			c-0.206-0.574,0.308-0.861,1.538-0.861h44.297c0.984,0,1.989-0.615,3.015-1.846L388.667,10.851z M368.18,31.153
			c0-1.066-0.637-1.6-1.907-1.6c-1.395,0-2.092,0.615-2.092,1.846c-0.041,5.783-0.883,10.849-2.522,15.196
			c-1.6,3.568-4.328,6.562-8.183,8.982c-1.025,0.615-1.538,1.578-1.538,2.892c0,1.394,0.492,2.092,1.477,2.092h26.271
			c1.024,0,1.538-0.492,1.538-1.477v-3.199c0-1.024-0.492-1.538-1.477-1.538h-5.353c-3.486,0.328-5.559-1.477-6.214-5.414V31.153z
			 M355.383,31.153c0-1.066-0.554-1.6-1.661-1.6c-1.19,0-1.784,0.492-1.784,1.477v20.241c0,1.395,0.348,1.375,1.046-0.062
			C354.746,46.248,355.546,39.562,355.383,31.153z M367.934,17.864c0-1.066-0.554-1.6-1.661-1.6c-1.19,0-1.784,0.492-1.784,1.477
			v8.552c0,1.026,0.554,1.538,1.661,1.538c1.189,0,1.784-0.492,1.784-1.477V17.864z M381.223,31.153c0-1.066-0.637-1.6-1.907-1.6
			c-1.354,0-2.03,0.492-2.03,1.477v12.612c0.286,1.312,1.086,1.887,2.399,1.723c1.024,0,1.538-0.492,1.538-1.477V31.153z"/>
	</g>
</g>
</svg>
